<?xml version="1.0" encoding="utf-8"?>
<!DOCTYPE svg PUBLIC "-//W3C//DTD SVG 1.1//EN" "http://www.w3.org/Graphics/SVG/1.1/DTD/svg11.dtd">
<svg version="1.1" xmlns="http://www.w3.org/2000/svg" xmlns:xlink="http://www.w3.org/1999/xlink" x="0px" y="0px" width="1024px" height="1024px" viewBox="0 0 1024 1024" enable-background="new 0 0 1024 1024" xml:space="preserve">
<metadata> Free Icon Download -- www.onlinewebfonts.com </metadata>

  <path d="M665.920602 996.528322 386.979612 511.954975l278.893918-484.545718c2.713808-4.715395 1.103124-10.745738-3.597945-13.468756l-8.511861-4.930289c-4.701069-2.723018-10.712993-1.107217-13.426801 3.609201L357.944322 503.244592c-2.758834 2.055822-4.174066 5.358031-3.924379 8.65717-0.299829 3.358491 1.130753 6.739495 3.952009 8.819876l282.407951 490.596528c2.714831 4.715395 8.726755 6.331195 13.428847 3.609201l8.513908-4.929266C667.023726 1007.27406 668.63441 1001.243717 665.920602 996.528322z" />
<path d="M665.920602 996.528322 386.979612 511.954975l278.893918-484.545718c2.713808-4.715395 1.103124-10.745738-3.597945-13.468756l-8.511861-4.930289c-4.701069-2.723018-10.712993-1.107217-13.426801 3.609201L357.944322 503.244592c-2.758834 2.055822-4.174066 5.358031-3.924379 8.65717-0.299829 3.358491 1.130753 6.739495 3.952009 8.819876l282.407951 490.596528c2.714831 4.715395 8.726755 6.331195 13.428847 3.609201l8.513908-4.929266C667.023726 1007.27406 668.63441 1001.243717 665.920602 996.528322z" />


</svg>