<?xml version="1.0" encoding="UTF-8" standalone="no"?>
<svg width="17px" height="20px" viewBox="0 0 17 20" version="1.1" xmlns="http://www.w3.org/2000/svg" xmlns:xlink="http://www.w3.org/1999/xlink" xmlns:sketch="http://www.bohemiancoding.com/sketch/ns">
    <!-- Generator: Sketch 3.3.1 (12002) - http://www.bohemiancoding.com/sketch -->
    <title>logo_apple</title>
    <desc>Created with Sketch.</desc>
    <defs></defs>
    <g id="Page-1" stroke="none" stroke-width="1" fill="none" fill-rule="evenodd" sketch:type="MSPage">
        <g id="vanity-google-store" sketch:type="MSArtboardGroup" transform="translate(-754.000000, -58.000000)" fill="#FFFFFF">
            <g id="Rectangle-2-+-Oval-2-copy-7-+-Oval-412-copy-5-+-Oval-412-copy-2-+-Periscope-+-Bitmap-2" sketch:type="MSLayerGroup" transform="translate(0.000000, -109.000000)">
                <g id="Group" transform="translate(469.000000, 167.000000)" sketch:type="MSShapeGroup">
                    <path d="M296.785811,0.178573574 C296.823789,0.292508077 296.842778,0.487143268 296.842778,0.762484985 C296.842778,1.0378267 296.776317,1.41285548 296.643393,1.88758258 C296.51047,2.36230968 296.282604,2.80854646 295.95979,3.22630631 C295.636975,3.64406615 295.314166,3.96212854 294.991351,4.180503 C294.668537,4.39887747 294.435924,4.53654626 294.293506,4.59351351 C294.151088,4.65048077 293.738081,4.71694156 293.054474,4.7928979 C293.054474,3.67254195 293.353548,2.69461879 293.951704,1.8590991 C294.54986,1.02357941 295.494553,0.463409833 296.785811,0.178573574 L296.785811,0.178573574 Z M301.143784,14.05003 C300.839958,15.1134187 300.2608,16.2242635 299.406291,17.3825976 C298.551783,18.5409317 297.687792,19.1200901 296.814294,19.1200901 C296.415524,19.1200901 295.87909,19.0014101 295.204977,18.7640465 C294.530865,18.526683 293.956454,18.408003 293.481727,18.408003 C293.007,18.408003 292.456324,18.5361774 291.829685,18.79253 C291.203045,19.0488827 290.709336,19.1770571 290.348544,19.1770571 C289.190209,19.1770571 288.050881,18.1896395 286.930526,16.2147748 C285.81017,14.23991 285.25,12.3600189 285.25,10.575045 C285.25,8.79007116 285.672501,7.34217522 286.517515,6.23131381 C287.362529,5.1204524 288.449638,4.56503003 289.778874,4.56503003 C290.329557,4.56503003 291.00366,4.67896282 291.801201,4.90683183 C292.598743,5.13470084 293.158912,5.24863363 293.481727,5.24863363 C293.804541,5.24863363 294.307744,5.11571204 294.991351,4.84986486 C295.826871,4.60300677 296.491479,4.47957958 296.985195,4.47957958 C298.409376,4.47957958 299.615165,5.10620995 300.602598,6.35948949 C299.235384,7.46085636 298.551787,8.6951283 298.551787,10.0623423 C298.551787,11.0117965 298.827124,11.8710397 299.377808,12.6400976 C299.928491,13.4091555 300.517144,13.8791283 301.143784,14.05003 L301.143784,14.05003 Z" id="logo_apple"></path>
                </g>
            </g>
        </g>
    </g>
</svg>