<?xml version="1.0" encoding="UTF-8" standalone="no"?>
<svg width="18px" height="19px" viewBox="0 0 18 19" version="1.1" xmlns="http://www.w3.org/2000/svg" xmlns:xlink="http://www.w3.org/1999/xlink" xmlns:sketch="http://www.bohemiancoding.com/sketch/ns">
    <!-- Generator: Sketch 3.3.1 (12002) - http://www.bohemiancoding.com/sketch -->
    <title>logo_playstore</title>
    <desc>Created with Sketch.</desc>
    <defs></defs>
    <g id="Page-1" stroke="none" stroke-width="1" fill="none" fill-rule="evenodd" sketch:type="MSPage">
        <g id="vanity-google-store" sketch:type="MSArtboardGroup" transform="translate(-813.000000, -58.000000)" fill="#FFFFFF">
            <g id="Rectangle-2-+-Oval-2-copy-7-+-Oval-412-copy-5-+-Oval-412-copy-2-+-Periscope-+-Bitmap-2" sketch:type="MSLayerGroup" transform="translate(0.000000, -109.000000)">
                <g id="Group" transform="translate(469.000000, 167.000000)" sketch:type="MSShapeGroup">
                    <path d="M345.222786,0.178573574 C345.273861,0.199975172 345.325783,0.225018992 345.378396,0.253797636 L356.982984,6.60141069 L356.982984,6.60141069 L354.234963,9.34943172 L345.222786,0.178573574 L345.222786,0.178573574 Z M344.319335,0.239783634 C344.119938,0.403200276 344,0.688243915 344,1.07083508 L344,18.0565855 C344,18.5812167 344.22457,18.9209745 344.569669,19.0147262 L353.748957,9.83543738 L344.319335,0.239783634 L344.319335,0.239783634 Z M357.158255,12.3241948 L360.460865,10.4911038 C361.457311,9.93803299 361.453994,9.047016 360.454574,8.50034135 L357.611284,6.94508536 L357.611284,6.94508536 L354.716709,9.83966002 L357.158255,12.3241948 L357.158255,12.3241948 Z M356.534741,12.6702716 L346.087338,18.4690314 L354.230703,10.3256657 L356.534741,12.6702716 L356.534741,12.6702716 Z" id="logo_playstore"></path>
                </g>
            </g>
        </g>
    </g>
</svg>